<?xml version="1.0" encoding="utf-8"?>
<!-- Generator: Adobe Illustrator 24.0.0, SVG Export Plug-In . SVG Version: 6.00 Build 0)  -->
<svg version="1.1" id="Layer_1" xmlns="http://www.w3.org/2000/svg" xmlns:xlink="http://www.w3.org/1999/xlink" x="0px" y="0px"
	 viewBox="0 0 357.1 342.21" style="enable-background:new 0 0 357.1 342.21;" xml:space="preserve">
<style type="text/css">
	.st0{fill:#C29A5B;}
	.st1{fill:#00853E;}
</style>
<g>
	<g>
		<path id="XMLID_120_" class="st0" d="M219.92,253.2c-0.01,0.01-2.68,0.27-4.99,1.65c0,0,0.83-1.42,2.71-2
			c-6.11-2.55-11.01-9.91-11.07-9.99c-1.57-2.1-2.32-2.88-3.92-4.9c0.57-0.48,1.48-1.25,1.48-1.25c0.01-0.01,1.01,0.44,2.11,0.36
			c2.51-0.2,4.41-2.28,4.24-4.66c-0.18-2.38-2.36-4.14-4.87-4c-1.38,0.07-2.41,0.87-2.41,0.87c-1.04,0.74-3.25,2.89-4.38,4
			c-4.39-5.25-8.86-10.18-13.42-14.77c22.27-19.96,54.23-40.44,92.94-41.76c-37.04-5.53-70.79,7.11-100.91,34.2
			c-30.12-27.09-63.87-39.73-100.91-34.2c38.7,1.32,70.67,21.79,92.94,41.76c-4.56,4.59-9.04,9.52-13.42,14.77
			c-1.13-1.12-3.33-3.26-4.37-4c0,0-1.04-0.79-2.41-0.87c-2.51-0.14-4.69,1.62-4.87,4c-0.17,2.38,1.73,4.47,4.24,4.66
			c1.09,0.08,2.11-0.37,2.11-0.36c0,0,0.91,0.77,1.48,1.25c-1.6,2.02-2.34,2.8-3.92,4.9c-0.06,0.08-4.96,7.43-11.07,9.99
			c1.88,0.58,2.71,2,2.71,2c-2.31-1.38-4.98-1.65-4.99-1.65c-5.46-0.81-12.17,2.28-10.9,9.64c1.22,7.05,14.23,12.54,24.35-1.63
			c4.14-5.81,8.21-11.88,8.21-11.88c1.27-1.67,1.94-2.35,3.69-4.49c1.22,1.12,2.9,2.61,3.76,3.19c0,0,1.06,0.76,2.43,0.8
			c2.51,0.06,4.64-1.76,4.74-4.15c0.1-2.39-1.87-4.42-4.38-4.53c-1.09-0.05-2.09,0.44-2.09,0.42c0-0.01-0.23-0.19-0.53-0.42
			c3.7-4.3,8.12-9.13,13.21-14.16c5.09,5.03,9.51,9.86,13.21,14.16c-0.3,0.24-0.53,0.42-0.53,0.42c0,0.01-1-0.48-2.09-0.42
			c-2.51,0.12-4.48,2.14-4.38,4.53c0.1,2.39,2.22,4.21,4.74,4.15c1.38-0.04,2.43-0.8,2.43-0.8c0.87-0.58,2.55-2.07,3.77-3.19
			c1.74,2.15,2.42,2.82,3.69,4.49c0,0,4.05,6.07,8.2,11.88c10.12,14.18,23.14,8.68,24.35,1.63
			C232.1,255.48,225.39,252.39,219.92,253.2"/>
		<path id="XMLID_119_" class="st0" d="M165.14,188.43c3.46,1.49,6.83,3.79,9.32,5.66c5.1,3.01,10.64-4.45,16.75-6.53
			c-6.8-0.72-8.37,2.04-12.7,2.2C174.44,189.89,173.28,187.71,165.14,188.43"/>
		<path id="XMLID_118_" class="st0" d="M155.64,175.12c-5.55,0.51-11.11,1.4-16.66,1.9c0.39,3.44,10.71-1.13,16.06,6.88
			c4.46-2.46,17.91-4.46,18.35-1.19c-5.03-0.14-9.73-0.37-13.3,1.7c3.12,0.03,3.89,2.88,5.29,1.88c3.59-2.55,5.04,0.75,10.01,0.96
			c1.28,0.01,2.81-1.12,3.83-1.05c2.24,0.14,3.61,1.57,5.95,0.46c3.7-1.77,7.79-2.04,13.9-1.1c-0.88-1.25-3.33-2.68-6.41-3.55
			c0.07-1.33,5.31-1.3,8.3-0.35c5.64,1.19,0.58-3.35,11.2-5.23c-1.44-4.39-9.62-1.08-12.57-1.57c-9.56-1.61-8.03,2.43-14.92-0.68
			l-2.99-63.57c0,0,0.54-2.78,1.55,0.11c1,2.89,3.46,8.8,5.37,10.84c1.92,2.04,2.1,1.58,2.1,1.58s0.89-1.86,1.32-3.93
			c0,0,1.31,1.6,2.76,2.84c0,0,0.92-2.39,0.66-5.53c-0.27-3.14-0.85-5.03-0.85-5.03s2.1,1.71,3.56,4.78
			c1.46,3.06,1.89,4.65,1.89,4.65s4.29-3.95,2.72-11.92c-1.56-7.97-6.6-9.87-6.6-9.87s3.72-0.97,7.16,4.6
			c3.44,5.57,4.8,7.27,4.8,7.27s3.14-5.48,0.92-9.96c-2.21-4.48-6.79-6.56-6.79-6.56s2.32-1,7.09,2.13
			c4.77,3.14,5.21,3.97,5.21,3.97s1.57-8.27-1.85-11.14c-3.42-2.87-12.38-3.24-13.86-5.91c0,0,12.01,1.11,14.74,3.71
			c0,0-2.85-7-10.48-9.67c-7.51-2.64-11.64-1.73-11.64-1.73c0.09-0.11,1.36-2.12,8.29-0.52c6.92,1.61,12.47,1.34,12.47,1.34
			s-8.58-7.27-17.74-6.69c-9.17,0.59-12.6,5.07-12.6,5.07s-2.59-0.96-1.08-3.41c1.5-2.45,1.52-4.95-0.72-8.3
			c0,0-5.72,3.39-7.08,7.26c-1.36,3.87,2.22,5.58-0.57,9.13c0,0-1.18-1.26-2.3-4.57c-1.13-3.32-6.75-7.51-21.54-2.46
			c0,0,4.22-0.29,7.3,2.65c3.07,2.95,2.78,4,2.78,4s-4.01-2.22-8.07-0.73c-4.06,1.49-4.77,3.48-4.77,3.48s4.85-0.6,7.14,0.34
			c2.29,0.94,2.29,2.26,2.29,2.26s-5.08-2.2-10.23,1.31c-5.14,3.52-4.86,8.59-4.86,8.59s3.01,0.37,6.38-1.05
			c3.37-1.42,4.78-2.59,7.03-1.8c0,0-3.63,1-5.88,3.01c-2.25,2.01-2.35,4.3-2.35,4.3s2.34-0.49,5.01-2.12
			c2.67-1.64,5.04-3.05,7.33-1.53c0,0-3.69,0.7-7.5,5.34c-7.39,8.98-1.72,18.2-1.72,18.2s4.43-4.33,6.29-7.78
			c1.87-3.45,2.88-4.83,2.88-4.83s-0.27,3.82,0.59,6.2c0,0,1.06-1.14,2.3-3.23c1.24-2.09,2.54-2.79,3.1-3.1
			c0,0-1.71,2.62-1.86,10.22c-0.14,7.6,1.66,8.85,1.66,8.85s3.69-4.18,6.51-9.55c2.16-4.09,3.63-7.78,3.63-7.78l-2.12,67.11
			C167.12,177.39,159.96,174.73,155.64,175.12"/>
	</g>
	<g>
		<path id="XMLID_115_" class="st1" d="M178.48,324.83c-84.71,0-153.8-69.09-153.8-153.8c0-84.71,69.09-153.8,153.8-153.8
			c84.71,0,153.8,69.09,153.8,153.8C332.28,255.74,263.19,324.83,178.48,324.83 M178.48,12.19C91,12.19,19.64,83.55,19.64,171.03
			c0,87.49,71.36,158.84,158.84,158.84c87.49,0,158.84-71.36,158.84-158.84C337.33,83.55,265.97,12.19,178.48,12.19"/>
		<path id="XMLID_112_" class="st1" d="M66.11,171.94c0-61.89,50.48-112.37,112.37-112.37c61.9,0,112.38,50.48,112.38,112.37
			c0,61.89-50.48,112.37-112.38,112.37C116.59,284.32,66.11,233.84,66.11,171.94 M295.9,171.94c0-64.67-52.74-117.42-117.42-117.42
			c-64.67,0-117.41,52.74-117.41,117.42c0,64.67,52.74,117.42,117.41,117.42C243.16,289.36,295.9,236.62,295.9,171.94"/>
		<path id="XMLID_111_" class="st1" d="M129.06,54.86c0.2-0.89,0.27-1.78,0.19-2.65c-0.1-1.3-0.49-2.69-1.16-4.17
			c-0.98-2.18-2.39-4.88-4.25-8.1L122.66,38l-0.7-1.16l-0.42,2.96c-0.14,1.35-0.17,2.09-0.11,2.23L129.06,54.86z"/>
		<path id="XMLID_110_" class="st1" d="M128.58,58.17c0.11,0.36,1.41,0.6,3.87,0.74c2.47,0.14,4.09,0.08,4.86-0.16
			c1.51-0.49,2.56-1.97,3.15-4.46c0.42-1.71,0.54-3.4,0.38-5.09c-0.11-0.93-0.25-1.68-0.44-2.25c-0.57-1.72-1.61-3.14-3.11-4.25
			c-1.05-0.77-2.08-1.25-3.1-1.43l-0.07,4.04c0.96,0.33,1.83,0.69,2.59,1.09c1.34,0.7,2.07,1.26,2.21,1.68
			c0.36,1.11-0.19,2.85-1.66,5.23c-0.72,1.22-1.4,2.18-2.05,2.87c-0.65,0.69-1.27,1.13-1.85,1.32c-0.4,0.13-1.09,0.22-2.04,0.26
			l-0.56-0.03l-0.68,0.05l-1.28,0.04C128.6,57.87,128.53,58,128.58,58.17"/>
		<polygon id="XMLID_108_" class="st1" points="72.35,85.07 72.37,85.02 72.29,84.85 		"/>
		<g id="XMLID_85_">
			<path id="XMLID_107_" class="st1" d="M107.05,49.74c-0.04-0.1,0.05-0.41,0.26-0.95l0.28-0.92l1.57,0.01
				c0.96-0.01,1.49-0.04,1.58-0.08l0.34-1.12l0.23-0.99l0.14-0.74L108.27,45c-0.05,0.08-0.11,0.21-0.16,0.38
				c-0.06,0.16-0.14,0.4-0.23,0.72c-0.19,0.57-0.31,0.88-0.4,0.92c-0.12,0.07-0.58,0.12-1.36,0.14c-0.81-0.03-1.31-0.08-1.5-0.16
				l-0.27,0.9c-0.11,0.28-0.2,0.61-0.28,0.96l-0.22,0.95c0.4,0.09,0.89,0.12,1.48,0.08C106.11,49.9,106.68,49.85,107.05,49.74"/>
			<path id="XMLID_106_" class="st1" d="M87.45,63.54l10.9,10.25c-0.06-0.91-0.24-1.78-0.56-2.6c-0.46-1.22-1.22-2.45-2.27-3.69
				c-1.55-1.83-3.66-4.04-6.34-6.62l-1.68-1.54l-0.99-0.92l0.41,2.96C87.17,62.7,87.34,63.42,87.45,63.54"/>
			<path id="XMLID_105_" class="st1" d="M104.03,62.38c0.52,0.93,1.37,1.5,2.54,1.71c0.68,0.1,1.25,0.1,1.7,0.02l0.43-0.09
				c0.14-0.02,0.26-0.06,0.36-0.11l0.78-0.37l12.34-6.78c0.1-0.27,0-1.18-0.27-2.74l-0.16-1.34c-0.01-0.21-0.03-0.36-0.07-0.43
				l-0.16-0.29l-0.15-0.57c-0.07-0.23-0.16-0.46-0.3-0.7l-0.12-0.3l-0.16-0.27l-0.21-0.4c-0.16-0.31-0.41-0.61-0.7-0.89
				c-0.3-0.29-0.69-0.61-1.17-0.92l-1.06-0.58l-0.84-0.44l-0.06,3.92l0.87,0.42c0.48,0.16,0.83,0.37,1.06,0.62
				c0.27,0.16,0.49,0.36,0.66,0.59l0.29,0.29c0.02,0.02,0.07,0.12,0.16,0.29c0.14,0.24,0.16,0.46,0.09,0.65l-10.63,5.84
				c-1.35,0.74-2.65,0.86-3.9,0.36l-0.43-0.2l-0.24-0.22l-0.27-0.36l-0.27-0.48c-0.23-0.41-0.54-1.15-0.93-2.24l-0.16-0.5
				l-0.22-0.44l-0.32-0.27c-0.38,0.21-0.36,1.21,0.06,2.99C102.98,59.95,103.47,61.36,104.03,62.38"/>
			<path id="XMLID_102_" class="st1" d="M157.37,39.32c0.32-0.36,0.68-0.61,1.06-0.75c0.25-0.14,0.46-0.22,0.66-0.25l0.84-0.17
				c0.67-0.12,1.25,0.22,1.73,1.02c0.26,0.4,0.41,0.66,0.43,0.81l0.19,0.54l0.12,0.66l-0.32,0.11l-0.33,0.04l-0.42-0.02l-0.41-0.08
				l-0.4-0.1l-1.46-0.52l-0.59-0.18l-0.75-0.29l-0.75-0.34L157.37,39.32z M150.04,46.66L150.04,46.66l2.81-0.5
				c0.88-0.15,1.42-0.64,1.6-1.45c0.11-0.54,0.29-0.94,0.55-1.21l5.56,1.91c0.9,0.34,1.6,0.58,2.12,0.72
				c0.52,0.15,0.85,0.21,1.01,0.19c0.23-0.05,0.38-0.42,0.45-1.12c0.12-0.7,0.32-1.07,0.58-1.12l2.28-0.4v0.01l6.76-0.12
				c0.28-0.36,0.52-0.75,0.71-1.21l0.29-0.54l0.34-0.67c0.36,0.91,0.69,1.52,1.01,1.82c0.53,0.37,1.09,0.54,1.67,0.53l2.46-0.04
				l-0.01-0.15l6.23,0.11l1.45-2.5c0.23,0.85,0.59,1.48,1.08,1.91c0.48,0.43,1.06,0.65,1.73,0.66l1.55,0.03l-0.02,0.14l4.23,0.74
				l0.46-0.03l0.43-0.14c0.41-0.19,0.74-0.4,0.97-0.62l0.23-0.2l0.06,0.23l0.27,0.84c0.14,0.2,0.42,0.37,0.84,0.52
				c0.41,0.15,1.1,0.31,2.07,0.48l0.46,0.08l0.89,0.16l0.96,0.09l1.51,0.05l0.57-0.49l0.22-0.15l0.1-0.04
				c0.14,0.14,0.23,0.3,0.28,0.48l0.07,0.35l0.11,0.23l5.07,0.89l0.33-0.61l0.52-0.71l0.59-0.82l0.29-0.51
				c0.23-0.57,0.41-1.26,0.56-2.08l0.78-4.4l-0.91,0.66c-0.34,0.25-0.7,0.55-1.1,0.9c-0.78,0.7-1.18,1.11-1.2,1.2l-0.01,0.61
				l0.01,0.85l0.01,0.43l0.06,0.6l-3.23-0.66c-0.03-0.11-0.03-0.24-0.01-0.41c0.06-0.31,0.19-0.71,0.38-1.2l0.44-1.01l1.02-2.16
				l-1.81,1.22c-0.84,0.65-1.29,1.01-1.35,1.1c-0.14,0.15-0.27,0.32-0.37,0.51c-0.1,0.19-0.19,0.52-0.28,1.01l-0.11,0.58l-1.08,0.06
				l-1.19-0.15l-0.48-0.08l-1.17-0.27l-0.93-0.31c-0.57-0.29-0.84-0.53-0.82-0.67l0.37-0.71c0.15-0.16,0.29-0.36,0.41-0.58
				l0.36-0.67c0.58-1.17,0.92-1.99,1-2.47c-0.82,0.57-1.5,1.08-2.08,1.55c-0.75,0.52-1.19,0.89-1.3,1.09
				c-0.09,0.5-0.18,0.88-0.29,1.13c-0.36,0.54-0.74,0.78-1.13,0.71l-5.38-0.94l-0.34,1.91l0.03-2.11l-0.5-0.01
				c-0.6-0.01-1.14-0.23-1.6-0.65c-0.38-0.4-0.57-0.84-0.55-1.35V37.5l0.15-0.74l0.09-0.28l0.01-0.29l0.07-1l0.08-1.37l0.01-0.49
				l-2.35,2.67l-0.13,2.07l-0.01,0.52l-0.11,0.46l-0.18,0.46l-0.06,0.13l-7.82-0.13l-0.01,0.16l-0.79,0.01
				c-0.49,0.01-0.94-0.15-1.34-0.47c-0.31-0.37-0.46-0.7-0.46-0.98l0.01-0.26l0.15-0.97l0.05-0.79l0.06-0.35l-0.01-0.46l0.01-0.62
				l-0.05-0.72l-0.04-0.39l-2.37,2.99l-0.07,1.81l-0.06,0.78l-0.14,0.51l-7.74,0.13l0.02,0.89l-0.16-0.91l-1,0.18
				c-0.44,0.07-1.05-0.35-1.84-1.26c-0.66-0.69-1.2-1.4-1.64-2.11l-0.2-0.4l-0.1-0.42l-0.12-0.72c-0.06-0.3-0.15-0.49-0.29-0.59
				c-0.24-0.08-0.53-0.1-0.9-0.03c-0.67,0.12-1.59,0.67-2.77,1.66c-1.17,0.98-1.98,1.9-2.41,2.74c-0.14,0.24-0.39,1.01-0.77,2.33
				c-0.19,0.54-0.49,0.84-0.95,0.92l-5.01,0.88v0.04l-1.05,0.28l-0.63,0.11c-0.26-0.01-0.42-0.04-0.48-0.11l-0.28-0.31
				c-0.03-0.02-0.07-0.09-0.1-0.21c-0.1-0.12-0.35-0.69-0.74-1.68l-1.79-4.53c-1.42-3.58-2.34-6.14-2.75-7.67l-1.62,3.44l5.76,15.6
				L150.04,46.66z"/>
			<path id="XMLID_99_" class="st1" d="M301.36,116.4l2.8,1.85c0.66,0.5,1.17,1.13,1.52,1.88l0.09,0.33l0.07,0.25l0.06,0.47
				c0.02,0.44-0.02,0.93-0.12,1.47c-0.22,1.13-0.51,1.78-0.88,1.95c-0.29,0.01-0.48,0-0.54-0.03c-0.44-0.2-0.8-0.61-1.1-1.24
				l-3.92-8.33L301.36,116.4z M273.76,83.18c-0.16,0.19-0.27,0.38-0.31,0.56c0.02,0.24,0.09,0.42,0.21,0.57l5.43,6.2
				c0.16,0.24,0.63,0.21,1.43-0.07c0.94-0.24,1.52-0.31,1.74-0.22l0.19,0.07l-0.08,0.19l-0.18,0.37c-0.05,0.16-0.1,0.27-0.16,0.32
				l-0.12,0.2l-0.2,0.31l-0.28,0.45c-0.25,0.48-0.31,0.75-0.18,0.84l1.4,1.6l-0.05,0.03l3.48,5.32l2.76-0.18l-0.56,0.67l-0.29,0.54
				c-0.26,0.85-0.18,1.61,0.26,2.27l1.17,1.77l0.75-0.48l1.58,3.37l2.6,0.27l-1.41,1.06c-0.23,0.32-0.31,0.52-0.26,0.64l7.78,16.54
				c0.27,0.37,0.67,0.58,1.21,0.65c0.5,0.1,1.31,0.15,2.43,0.15l2.07-0.06l1.72-0.08c0.79-0.37,1.42-1.4,1.89-3.11
				c0.47-1.72,0.52-2.98,0.12-3.8c-0.31-0.66-1.47-1.61-3.46-2.85l-4.83-2.79l-2.18-1.37c-0.55-0.35-0.96-0.68-1.24-1.01
				c-0.19-0.17-0.32-0.31-0.41-0.43l-0.23-0.49l-0.25-0.54c-0.13-0.28-0.15-0.58-0.07-0.89c0.18-0.33,0.42-0.57,0.74-0.71l4.23-2.26
				l-2.31-0.56c-1.04-0.25-1.65-0.37-1.86-0.34l-2.24,1.59l-2.39-5.07l-0.85,0.39l-0.42-0.65c-0.26-0.4-0.36-0.85-0.29-1.37
				c0.1-0.42,0.3-0.74,0.61-0.94l0.2-0.11l0.91-0.39l0.69-0.38l0.34-0.13l0.39-0.25l0.53-0.32l0.59-0.42l0.32-0.24
				c-0.16-0.04-0.83-0.12-1.99-0.23l-1.38-0.13l-0.45-0.04l-1.57,0.91l-0.7,0.36l-0.51,0.15l-3.99-6.1l-0.11,0.07l0.16-0.15
				l-0.52-0.59c-0.24-0.28-0.07-0.84,0.52-1.68l1.39-1.95l2.78-4l1.01-1.45l-4.04,1.08l-2.17,3.33c-0.44,0.71-0.92,1.27-1.42,1.7
				l-0.22,0.17l-0.2,0.11l-5.26-6c-0.26-0.3-0.35-0.6-0.25-0.9c0.12-0.28,0.37-0.59,0.75-0.91c0.04,0,0.12-0.06,0.24-0.16l0.25-0.22
				l0.21-0.13l0.17-0.15l0.35-0.28l0.15-0.18l0.06-0.15c-0.1-0.11-0.42-0.06-0.97,0.17l-0.44,0.15l-0.39,0.22
				c-0.53,0.21-1.35,0.67-2.47,1.39L273.76,83.18z"/>
			<path id="XMLID_98_" class="st1" d="M239.64,56.58c0.95-0.89,1.79-2.07,2.54-3.52c1.09-2.13,2.32-4.91,3.67-8.37l0.78-2.13
				l0.46-1.26l-2.58,1.53c-1.15,0.74-1.74,1.18-1.82,1.32l-5.26,13.95C238.27,57.69,239.01,57.19,239.64,56.58"/>
			<path id="XMLID_97_" class="st1" d="M298.95,93.93c0.98,0.36,1.56,0.48,1.72,0.38c0.05-0.16,0.09-0.38,0.14-0.66
				c0.06-0.29,0.12-0.69,0.2-1.2l0.24-1.75c-0.11-0.15-0.71-0.35-1.81-0.61c-1.09-0.26-1.68-0.36-1.78-0.3
				c-0.09,0.06-0.2,0.61-0.31,1.66c-0.06,1.08-0.07,1.66-0.01,1.76C297.43,93.33,297.97,93.57,298.95,93.93"/>
			<path id="XMLID_94_" class="st1" d="M262.14,65.83l-0.38-0.27l-0.42-0.29l-0.39-0.39l-0.24-0.39l-0.14-0.38l-0.15-0.59
				c-0.05-0.15-0.07-0.3-0.07-0.46c0.5-0.25,0.91-0.44,1.23-0.52c0.49-0.1,0.86-0.06,1.11,0.11c0.17,0.12,0.31,0.56,0.4,1.31
				c0.07,0.37,0.09,0.75,0.05,1.15c0,0.35-0.05,0.69-0.15,1.02l-0.29-0.03l-0.22-0.06L262.14,65.83z M245.7,67.92
				c0.36,1.43,1.37,2.72,3.01,3.87c0.11,0.07,0.24,0.17,0.42,0.28c0.18,0.12,0.45,0.26,0.81,0.45l0.83,0.42l0.93,0.4
				c1.09,0.4,2.33,0.73,3.71,1c2.07,0.39,3.48,0.49,4.22,0.35c0.49-0.24,1.09-0.63,1.77-1.21l0.92-0.72l1.17-0.96l0.14-0.14
				l0.29-0.41l0.78-1.41l0.46-1.01l0.41-1.03c0.7-2.04,1.02-3.68,0.96-4.9c-0.05-0.7-0.15-1.19-0.31-1.46
				c-0.16-0.36-0.39-0.66-0.71-0.88c-0.96-0.67-2.5-0.52-4.58,0.49c-1.92,0.98-3.19,1.88-3.77,2.72c-0.42,0.59-0.48,1.32-0.18,2.17
				c0.31,0.85,0.8,1.51,1.48,1.98c0.95,0.66,1.9,0.96,2.83,0.89c0.29-0.01,0.65-0.1,1.06-0.28c0,0.15-0.01,0.29-0.05,0.42l-0.08,0.4
				c-0.01,0.28-0.1,0.55-0.25,0.84l-0.22,0.6l-0.19,0.3l-0.5,1.04c-1.17,0.19-2.66-0.02-4.46-0.61c-1.81-0.59-3.47-1.42-5-2.47
				c-0.94-0.65-1.66-1.48-2.16-2.5c-0.62-1.34-0.49-2.62,0.37-3.83c0.2-0.28,0.48-0.59,0.85-0.91l1.42-1.07l1.31-0.96
				c0.31-0.22,0.5-0.39,0.57-0.49c0.08-0.18,0.07-0.29-0.02-0.36c-0.36-0.25-1.44,0.23-3.24,1.43c-0.91,0.56-1.72,1.17-2.41,1.81
				c-0.68,0.66-1.23,1.28-1.66,1.87C245.71,65.35,245.4,66.64,245.7,67.92"/>
			<path id="XMLID_91_" class="st1" d="M226.52,47.57l0.92-0.36l1.31-0.66l0.09,0.59l0.1,0.73l0.05,0.76l-0.01,0.51
				c-0.47-0.1-0.93-0.23-1.37-0.4l-0.23-0.09l-1.18-0.52l-0.48-0.32L226.52,47.57z M229.37,53.3l0.66-1.28
				c0.26-0.43,0.51-0.97,0.78-1.65c0.02-0.05,0.07-0.18,0.15-0.4l0.24-0.79l0.07-0.65l0.01-0.85l-0.12-1.96
				c0.24-0.07,0.55-0.29,0.93-0.63l1.35-1.26c0.25-0.19,0.63-0.63,1.1-1.34c0.19-0.2,0.32-0.39,0.4-0.55l0.22-0.38l0.24-0.39
				l0.23-0.59l0.3,0.36c0.07,0.11,0.14,0.19,0.2,0.21l0.46,0.2l3.16-2.3c0.02-0.16-0.26-0.61-0.85-1.35l-0.91-1.13
				c-0.42-0.57-0.64-1.01-0.65-1.33c-0.02-0.32,0.07-0.74,0.27-1.25l-2.05,1.45l-1.57,1.17l-0.53,0.42l0.31,1.07
				c0.01,0.48-0.08,1-0.29,1.55l-0.18,0.45l-0.31,0.66l-0.43,0.75l-0.42,0.66c-0.69,0.87-1.12,1.38-1.3,1.52l-0.71-2.88l-0.73-2.25
				c-0.24-0.66-0.49-1.24-0.74-1.73l-0.63-1.22l-0.4-0.75c-0.28-0.55-0.54-0.97-0.76-1.3c-0.86-1.38-1.62-2.19-2.29-2.45l-0.79,0.77
				l-0.71,0.79c-0.63,0.76-1.02,1.35-1.18,1.77c-0.2,0.5-0.29,0.99-0.27,1.44c0.02,0.45,0.24,0.85,0.66,1.22
				c0.58,0.54,1.19,1.29,1.85,2.21l0.31,0.4l0.51,0.81c0.16,0.06,0.36-0.06,0.59-0.37c0.24-0.31,0.38-0.45,0.45-0.42
				c0.12,0.05,0.36,0.36,0.7,0.95l0.45,0.8c0.12,0.25,0.21,0.46,0.27,0.66l0.46,1.13l0.31,0.96l0.26,0.89l0.02,0.15
				c-0.25,0.17-0.62,0.34-1.12,0.51l-0.79,0.28l-0.69,0.18l-1.58,0.39c-0.55,0.13-1,0.12-1.34-0.01c-0.65-0.25-1-0.63-1.06-1.16
				l-0.14-0.65l-0.07-0.2c-0.16,0.02-0.37,0.27-0.63,0.75c-0.2,0.29-0.36,0.56-0.46,0.83l-0.43,1.05c-0.11,0.29-0.2,0.59-0.29,0.92
				c-0.09,0.32-0.15,0.59-0.18,0.82c0.07,0.49,0.22,0.78,0.42,0.85L229.37,53.3z"/>
			<path id="XMLID_90_" class="st1" d="M263.3,55.02l0.24,0.57l0.24,0.4c0.18,0.29,0.35,0.5,0.52,0.61l0.16-0.03l0.85-0.11
				l0.82-0.11l0.26-0.05l0.43,0.91c0.66,1.3,1.02,1.95,1.09,2c0.23,0.01,0.63-0.05,1.19-0.17c0.55-0.09,1.19-0.25,1.91-0.46
				l-1.54-3.05l-0.87,0.1l-0.79,0.14c-0.2,0.06-0.38,0.07-0.5,0.03l-0.21-0.06c-0.14-0.09-0.37-0.5-0.71-1.23
				c-0.37-0.9-0.57-1.41-0.58-1.52l-0.96,0.18l-2.1,0.49l0.18,0.58L263.3,55.02z"/>
			<path id="XMLID_87_" class="st1" d="M270.17,73.25c0.22-0.23,0.66-0.33,1.31-0.3c0.33-0.01,0.61,0.04,0.84,0.13
				c0.24,0.11,0.38,0.18,0.45,0.22c0.06,0.04,0.15,0.11,0.24,0.2c0.35,0.32,0.53,0.79,0.54,1.38c0.02,0.6-0.18,1.12-0.59,1.56
				l-0.14,0.14l-0.94-0.36l-0.29-0.1l-0.14-0.12l-0.26-0.24l-0.53-0.59l-0.45-0.75C270.05,73.79,270.03,73.41,270.17,73.25
				 M267.54,74.17c-0.26,0.35-0.44,0.65-0.54,0.9c-0.31,0.98-0.07,1.85,0.74,2.59c0.9,0.83,1.77,1.22,2.64,1.18l0.37-0.05l0.34-0.09
				l0.48-0.17l0.74-0.31l0.86-0.45c-0.14,0.33-0.24,0.54-0.33,0.64l-0.24,0.49l-0.09,0.1l-0.1,0.11l-0.15,0.15
				c-0.88,0.93-2.52,1.41-4.92,1.43c-1.11,0.01-2.19-0.06-3.24-0.21c-1.05-0.16-2.08-0.42-3.08-0.79l-0.42-0.12l-0.35-0.23
				c-0.17-0.06-0.41-0.24-0.72-0.54l-0.59-0.65l-0.52-0.68l-0.84-1.25l-0.36-0.49c-0.33-0.14-0.54-0.16-0.65-0.05
				c-0.14,0.32,0.35,1.38,1.47,3.16c0.1,0.2,0.18,0.34,0.22,0.41c0.05,0.08,0.13,0.21,0.26,0.39l0.4,0.61
				c0.07,0.16,0.13,0.25,0.16,0.31c0.03,0.05,0.08,0.11,0.16,0.2l0.37,0.5c0.35,0.5,0.82,1.03,1.4,1.57
				c1.57,1.45,3.92,1.63,7.04,0.53c2.65-0.96,4.86-2.39,6.66-4.3c1.12-1.18,1.87-2.62,2.27-4.31c0.4-1.68,0.35-2.77-0.18-3.25
				c-0.76-0.71-2.2-0.79-4.32-0.26c-1.94,0.46-3.23,1.02-3.86,1.7L267.54,74.17z"/>
			<path id="XMLID_86_" class="st1" d="M171.22,31.67l0.49-0.59l0.47-0.49l0.62-0.57c0.14-0.01,0.66,0.27,1.57,0.81l1.39,0.82
				l0.39-0.43l0.61-0.74l0.75-1l-2.59-1.52l-0.66,0.66c-0.62,0.62-1,0.93-1.15,0.93c-0.25-0.06-0.67-0.24-1.26-0.56l-0.72-0.43
				l-0.64-0.41l-0.28,0.27l-0.29,0.31l-0.4,0.48l-0.79,0.98c0.23,0.19,0.58,0.45,1.09,0.75C170.28,31.24,170.76,31.49,171.22,31.67"
				/>
		</g>
		<polygon id="XMLID_84_" class="st1" points="170.76,26.43 172.89,28.05 174.71,26.33 172.67,24.62 		"/>
		<g id="XMLID_70_">
			<path id="XMLID_83_" class="st1" d="M184.23,29.55l0.46-0.49l1.14-1l1.56,0.94c0.91,0.48,1.4,0.71,1.47,0.71l0.28-0.24l0.67-0.62
				c0.74-0.77,1.18-1.25,1.32-1.44l-3.08-1.71c-0.23,0.13-0.57,0.41-1.02,0.84c-0.46,0.44-0.75,0.65-0.86,0.65l-0.54-0.21l-0.8-0.41
				c-0.82-0.54-1.27-0.85-1.38-0.95l-0.7,0.65l-0.65,0.63l-0.92,0.97c0.11,0.2,0.55,0.5,1.32,0.93
				C183.26,29.22,183.84,29.47,184.23,29.55"/>
			<path id="XMLID_82_" class="st1" d="M73.52,99.42l2.99-4.09l-0.2-0.14l5.05-6.18l-0.37-1.17l-0.45-1.05l-0.15-0.31l0.37,0.05
				l0.66,0.08l0.64,0.15l1.01,0.16l2.29-2.8l5.02-4.64l0.24-0.31l0.27-0.35c0.14-0.28,0.18-0.44,0.1-0.46
				c-0.11-0.25-0.19-0.43-0.25-0.52c-0.06-0.09-0.19-0.29-0.39-0.59l-0.65-1.05c-0.51-0.81-0.87-1.34-1.11-1.59
				c-0.03-0.03-0.12-0.12-0.25-0.28l-2.14-1.72l-0.6-0.45l-0.44-0.35l-0.62-0.58l-0.83-0.78l-0.07-0.07l-0.42-4.43l-0.78,0.23
				l-1.14,0.26l-2.68,0.48c-0.5-0.07-0.83-0.14-0.97-0.22l-0.22-0.07c-0.06-0.02-0.12-0.07-0.21-0.17l-0.42-0.42l0.13,1l0.34,1.47
				l0.63,2.29l1.68-0.16l2.39,1.73l2.15,1.49c1.33,0.96,2.29,1.75,2.88,2.38c0.33,0.35,0.49,0.61,0.46,0.76l-4.46,4.13l-0.06-0.05
				l-1.62,1.99l-0.18-0.23l-0.28-0.54l-0.31-0.95c-0.13-0.41-0.26-0.71-0.38-0.91c-0.11-0.2-0.25-0.35-0.38-0.46
				c-0.48-0.38-1.28-0.53-2.41-0.43c-1.4,0.15-2.55,0.76-3.42,1.83c-0.54,0.67-0.96,1.53-1.27,2.59l-0.2,0.66l-0.1,0.41l0.07,0.16
				l0.69,1.81l0.75,1.68c0.02-0.11,0.11-0.25,0.26-0.44l0.39-0.48c0.5-0.61,1.13-1.02,1.92-1.24c0.59-0.16,1.14-0.19,1.67-0.11
				l0.35,0.09L73,93.19l0.21,0.17l-0.6,0.82l-0.42,0.48c-0.2,0.16-0.36,0.23-0.44,0.22l-0.41-0.06c-0.03,0.01-0.1-0.03-0.21-0.1
				c-0.16-0.03-0.71-0.32-1.64-0.85l-4.26-2.41c-3.38-1.89-5.71-3.3-7-4.23l0.92,3.68L73.52,99.42z"/>
			<path id="XMLID_78_" class="st1" d="M53.87,119.24l0.66,0.11c0.17,0.02,0.33,0.05,0.5,0.12l0.66,0.17l0.45,0.18l0.42,0.17
				l-0.21,0.52l-0.36,0.87l-0.51,0.95c-0.09,0.06-0.22,0.25-0.4,0.59l-0.36,0.57l-0.44,0.59l-0.4,0.51l-0.18-2.16
				c-0.06-0.71-0.2-1.24-0.44-1.6l-0.74-0.82c-0.27-0.33-0.45-0.67-0.52-1.02C52.17,118.91,52.77,119,53.87,119.24 M61.2,106.79
				l-0.04-0.44l-0.03-1.01c0.01-0.41,0.03-0.65,0.07-0.71l0.11-0.42l0.25-0.46c0.36-0.43,1.01-0.54,1.96-0.33
				c0.42,0.1,0.87,0.23,1.34,0.39L61.2,106.79z M48.65,117.68l0.8,1.12l0.6,0.06c0.32-0.01,0.54,0.02,0.68,0.07l0.62,3.65
				c0.16,1.04,0.32,1.75,0.48,2.14c0.24,0.63,0.92,1.43,2.02,2.39c1.1,0.97,1.86,1.53,2.28,1.7l0.18-0.43l0.36-0.56l1.18-1.71
				c0.98-1.38,1.5-2.15,1.57-2.32c0.17-0.41-0.1-1.01-0.8-1.77c-0.7-0.78-1.07-1.32-1.1-1.64l0.03-0.23l0.19,0.03
				c0.19,0,0.83,0.14,1.93,0.42c1.46,0.19,2.34-0.09,2.65-0.84l0.88-2.17l-0.1-0.04l2.18-4.05c0.19-0.35,0.1-0.77-0.27-1.25
				c-0.84-1.31-1.22-2.09-1.12-2.34l5.41-4.86c-0.02-0.2-0.36-0.87-1.04-1.98c-0.67-1.12-1.08-1.71-1.21-1.78
				c-0.34-0.18-0.68-0.32-1.02-0.44l-0.84-0.22l-0.57-0.14l-2.93-0.47l-1.42-0.29c-0.33-0.07-0.58,0.06-0.75,0.38
				c-0.17,0.32-0.28,0.73-0.35,1.25l-0.19,1.81c-0.05,1.48,0.22,2.83,0.83,4.08l0.92,1.35l1.52,2.12l0.1,0.1l-2.92,5.45l0.13,0.07
				l-0.33,0.79l-0.14,0.35c-0.12,0.31-0.27,0.49-0.43,0.57l-0.55,0.12c-0.29,0-1.19-0.18-2.68-0.53l-4.9-1.21l-1.7-0.35l-1.72-0.33
				l0.84,0.99L48.65,117.68z"/>
			<path id="XMLID_77_" class="st1" d="M41.79,124.27c0.17-0.07,0.38-0.2,0.65-0.4l0.57-0.44l0.74-0.63
				c0.18-0.17,0.34-0.37,0.51-0.6c-0.09-0.05-0.23-0.35-0.41-0.88l-0.16-0.45l-0.2-0.48c0.14-0.06,0.57-0.4,1.31-1.02
				c0.5-0.43,0.82-0.72,0.97-0.9l0.14-0.14c0-0.1-0.14-0.45-0.42-1.05l-0.4-0.82l-0.4-0.78l-2.53,2.03l0.58,1.47
				c0.14,0.32,0.18,0.54,0.13,0.66c-0.07,0.17-0.39,0.48-0.97,0.91c-0.67,0.46-1.11,0.75-1.32,0.85l0.35,0.78L41.79,124.27z"/>
			<path id="XMLID_74_" class="st1" d="M315.26,177c0.56-1.05,0.88-1.61,0.95-1.66c0.29,0,0.7,0.2,1.26,0.63
				c0.54,0.45,0.82,0.82,0.82,1.08c-0.15,0.69-0.75,1.21-1.81,1.55c-0.19,0.12-0.46,0.2-0.82,0.26c-0.04,0-0.32,0.03-0.82,0.11
				l-0.05-0.21C314.81,178.5,314.97,177.91,315.26,177 M300.25,183.24c0.06,0.16,0.78,0.44,2.16,0.83c1.26,0.35,2.11,0.52,2.55,0.52
				l0.26-0.02l0.45-0.41l0.67-0.45c0.08-0.06,0.21-0.14,0.37-0.24c0.17-0.11,0.36-0.2,0.58-0.28c0.97-0.49,2.03-0.84,3.19-1.06
				c1.16-0.22,2.38-0.32,3.66-0.32c2.81,0,4.95-0.39,6.43-1.16c1.47-0.76,2.21-1.66,2.21-2.68c0-1.06-1.06-2.27-3.18-3.66
				c-2.12-1.38-3.97-2.07-5.58-2.07l-1.01,0.06c-0.42,0.09-0.88,0.46-1.41,1.1c-0.68,0.72-1.1,1.69-1.27,2.92
				c-0.11,0.35-0.17,0.97-0.17,1.86l-0.14,1l-0.06,0.33c-1.32,0.21-2.5,0.45-3.53,0.71l-1.49,0.46l-1.36,0.49
				C301.45,182.07,300.34,182.76,300.25,183.24"/>
			<path id="XMLID_73_" class="st1" d="M320.96,155.39c-0.73-0.68-1.48-1.22-2.24-1.64l-1.13-0.58l-1.06,0.61l-2.07,1.25
				c-0.55,0.27-1.3,0.61-2.25,1l-3.07,1.18c-1.49,0.55-3.31,0.95-5.42,1.21c-2.12,0.25-3.18,0.58-3.18,1c0,0.41,0.31,0.68,0.9,0.8
				c0.6,0.11,1.7,0.18,3.29,0.18h0.56h2.49l1.13-0.11l1.31-0.17l1.48-0.37l1.29-0.37l0.24,0.84c0.31,0.72,0.86,1.47,1.64,2.25
				l-0.24,0.41l-0.19,0.42l-0.3,0.82c-0.24,0.58-0.37,1.15-0.37,1.71c0,0.27,0.05,0.54,0.13,0.8c0.23,0.8,1.05,1.47,2.46,2.03
				c1.27,0.5,2.45,0.75,3.55,0.75l0.58-0.05l0.37-0.12c0.15-0.16,0.21-0.32,0.17-0.5c-0.11-0.26-0.33-0.47-0.65-0.63l-1.28-0.61
				c-0.32-0.32-0.47-0.63-0.47-0.95c0-0.52,0.15-0.99,0.46-1.43c0.34-0.42,0.61-0.67,0.78-0.71l0.54-0.03h0.52
				c0.56,0,0.84-0.21,0.84-0.61l-2.22-1.58c-0.79-0.56-1.42-1.21-1.89-1.94c-0.1-0.19-0.15-0.38-0.15-0.58c0-0.7,0.6-1.62,1.79-2.77
				L320.96,155.39z"/>
			<path id="XMLID_72_" class="st1" d="M307.52,145.1c-1.27,0.24-2.94,0.52-4.98,0.83c-1.09,0.25-1.62,0.52-1.62,0.79
				c0,0.41,0.42,0.67,1.27,0.8c0.63,0.16,1.71,0.25,3.24,0.25l1.39-0.03h0.75c1.23,0,2.59-0.12,4.1-0.35
				c1.51-0.23,2.89-0.54,4.14-0.91c2.12-0.74,3.76-1.51,4.93-2.34c1.18-0.82,1.72-1.33,1.64-1.53c-0.05-0.16-0.76-0.49-2.14-0.99
				c-0.2-0.07-0.48-0.18-0.82-0.3c-0.23-0.07-0.52-0.16-0.86-0.27l-0.65-0.17l-0.5-0.02l-2.6,1.53c-0.55,0.3-1.22,0.63-2.02,1
				c-0.79,0.36-1.68,0.71-2.65,1.05C309.66,144.65,308.8,144.86,307.52,145.1"/>
			<path id="XMLID_71_" class="st1" d="M319.41,192.14c-0.23-0.07-0.52-0.16-0.86-0.27l-0.65-0.17l-0.5-0.02l-2.6,1.53
				c-0.55,0.3-1.22,0.63-2.02,1c-0.79,0.36-1.68,0.71-2.65,1.05c-0.46,0.19-1.32,0.41-2.6,0.65c-1.27,0.24-2.94,0.53-4.98,0.83
				c-1.09,0.26-1.62,0.52-1.62,0.8c0,0.4,0.42,0.67,1.27,0.79c0.64,0.16,1.72,0.24,3.24,0.24l1.39-0.02h0.75
				c1.23,0,2.59-0.12,4.1-0.35c1.51-0.23,2.88-0.54,4.14-0.91c2.12-0.74,3.76-1.51,4.93-2.34c1.17-0.82,1.72-1.32,1.64-1.53
				c-0.05-0.15-0.76-0.49-2.14-0.99C320.03,192.37,319.76,192.27,319.41,192.14"/>
		</g>
		<polygon id="XMLID_69_" class="st1" points="52.62,152.41 53.14,149.39 53.15,149.31 51.03,144.89 50.97,144.77 47.64,144.21 
			49.45,148.14 36.3,145.91 36.05,145.87 35.44,149.49 52.37,152.37 		"/>
		<g id="XMLID_65_">
			<path id="XMLID_66_" class="st1" d="M43.65,161.13c0.53-0.44,1.24-0.67,2.07-0.67c0.09,0,0.18,0,0.26,0.01
				c1.89,0.11,3.05,1.31,2.95,3.07c-0.05,0.89-0.39,1.64-0.99,2.14c-0.56,0.47-1.33,0.71-2.23,0.71c-0.1,0-0.2,0-0.29-0.01
				c-0.84-0.05-1.56-0.38-2.05-0.95c-0.49-0.58-0.73-1.35-0.69-2.22C42.73,162.33,43.07,161.61,43.65,161.13 M42.41,170.06
				l0.87,0.05c0.31,0.02,0.59,0.02,0.88,0.02c4.69,0,7.38-2.25,7.61-6.42c0.22-3.96-2.01-6.65-5.68-6.86
				c-0.14-0.01-0.27-0.01-0.39-0.01c-3.18,0-5.49,2.23-5.68,5.55c-0.11,1.95,0.58,3.19,1.36,3.97c-3.14-0.37-4.66-1.64-4.56-3.74
				c0.09-1.53,0.75-2.32,2.13-2.56l0.2-0.03l0.19-3.44l-0.29,0.02c-3.09,0.25-4.98,2.39-5.17,5.89
				C33.65,166.99,36.74,169.75,42.41,170.06"/>
		</g>
		<polygon id="XMLID_64_" class="st1" points="51.28,185.52 51.95,185.48 51.17,173.16 48.12,173.35 48.61,181.11 34.26,176.68 
			33.91,176.58 34.14,180.18 34.15,180.36 51.24,185.51 		"/>
		<polygon id="XMLID_63_" class="st1" points="53.15,192.74 53.14,192.66 49.65,189.21 49.56,189.12 46.23,189.71 49.25,192.81 
			35.87,195.15 36.5,198.77 53.68,195.76 		"/>
		<g id="XMLID_55_">
			<path id="XMLID_60_" class="st1" d="M59.66,221.88l0.93,2.09c0.88,1.96,0.62,3.43-1.32,4.3l-0.11,0.05
				c-1.81,0.81-3.26,0.18-4.16-1.85l-0.93-2.09L59.66,221.88z M60.97,232.28l0.1-0.05c3.86-1.72,4.69-5.12,2.71-9.56l-2.81-6.3
				l-18.25,8.15l1.83,4.11l6.63-2.97l1.04,2.32C54.09,232.14,57.12,234,60.97,232.28"/>
			<path id="XMLID_59_" class="st1" d="M68.26,242.19l-7.3,4.49c-1.83,1.13-3.44,0.54-4.34-0.91c-0.91-1.48-0.52-2.67,1.17-3.7
				l7.55-4.65L63.22,234l-8.02,4.94c-3.26,2-3.58,4.69-2.08,7.12c1.26,2.04,2.99,2.72,4.64,2.58l-1.95,1.21l2.11,3.42l12.44-7.66
				L68.26,242.19z"/>
			<path id="XMLID_56_" class="st1" d="M73.8,261.62l-0.17,0.14c-2.21,1.81-4.16,1.81-5.57,0.07c-1.39-1.71-1.17-3.7,1.1-5.55
				l0.18-0.14c2.28-1.85,4.34-1.66,5.68-0.02C76.31,257.71,76.1,259.75,73.8,261.62 M76.42,264.79c3.75-3.05,4.04-6.89,1.78-9.66
				c-1.35-1.67-3.39-2.21-4.98-1.96l6.91-5.63l-2.56-3.14l-16.46,13.41l2.56,3.14l1.79-1.47c-0.7,1.53-0.52,3.52,0.91,5.28
				c2.29,2.81,6.13,3.22,9.87,0.17L76.42,264.79z"/>
		</g>
		
			<rect id="XMLID_54_" x="72.11" y="264.47" transform="matrix(0.7094 -0.7048 0.7048 0.7094 -163.7847 135.7565)" class="st1" width="21.23" height="4.02"/>
		<g id="XMLID_52_">
			<path id="XMLID_53_" class="st1" d="M92.43,264.49c-0.84,0.94-0.72,2.32,0.25,3.17c0.97,0.88,2.36,0.83,3.19-0.11
				c0.84-0.94,0.72-2.32-0.26-3.19C94.64,263.5,93.26,263.55,92.43,264.49"/>
		</g>
		
			<rect id="XMLID_51_" x="79.21" y="272.61" transform="matrix(0.6646 -0.7472 0.7472 0.6646 -176.173 156.7349)" class="st1" width="14.62" height="4.02"/>
		<g id="XMLID_49_">
			<path id="XMLID_50_" class="st1" d="M101.26,276.72c-3.36-2.47-7.78-2.15-10.58,1.66l-0.13,0.18c-2.83,3.85-1.79,7.91,1.65,10.44
				c3.42,2.51,6.88,2.07,9.11-0.59l-2.95-2.17c-1.27,1.4-2.89,1.38-4.19,0.42c-1.82-1.34-1.99-3.33-0.25-5.7l0.13-0.18
				c1.65-2.25,3.7-2.68,5.39-1.44c1.33,0.97,1.7,2.21,0.91,3.75l3.09,2.26C105.63,281.77,103.99,278.72,101.26,276.72"/>
		</g>
		
			<rect id="XMLID_48_" x="104.81" y="288.74" transform="matrix(0.4678 -0.8838 0.8838 0.4678 -196.1201 256.3296)" class="st1" width="19.98" height="4.56"/>
		<g id="XMLID_46_">
			<path id="XMLID_47_" class="st1" d="M130.91,292.98c-2.25-0.92-4.18-0.4-5.4,0.66l0.88-2.14l-3.75-1.53l-5.51,13.52l3.75,1.53
				l3.18-7.81c0.81-1.99,2.43-2.48,4.04-1.82c1.65,0.67,2.02,1.85,1.27,3.69l-3.29,8.07l3.75,1.53l3.51-8.62
				C134.81,296.43,133.58,294.06,130.91,292.98"/>
		</g>
		<polygon id="XMLID_45_" class="st1" points="147.94,298.7 141.87,307.88 141.23,296.88 137.04,295.75 138.38,311.25 
			142.78,312.44 151.72,299.72 		"/>
		<g id="XMLID_33_">
			<path id="XMLID_42_" class="st1" d="M155.64,306.11c0.61-2,2-3.01,3.79-2.75c1.91,0.28,2.86,1.49,2.68,3.7L155.64,306.11z
				 M159.84,300.6c-4.2-0.62-7.87,1.86-8.54,6.43l-0.03,0.22c-0.68,4.62,2.09,7.82,6.46,8.46c3.95,0.58,6.7-0.79,7.63-3.85
				l-3.79-0.55c-0.42,1.18-1.45,1.85-3.31,1.57c-2.19-0.32-3.28-1.89-3.04-4.31l10.42,1.53l0.16-1.1
				C166.56,303.83,163.57,301.15,159.84,300.6"/>
			<path id="XMLID_41_" class="st1" d="M175.31,307.79c-2.12-0.37-2.8-0.75-2.77-1.68c0.02-0.89,0.79-1.48,2.11-1.45
				c1.4,0.05,2.06,0.62,2.24,1.82l3.71,0.11c-0.27-3.36-2.67-4.61-5.9-4.7c-2.99-0.09-5.83,1.35-5.92,4.39
				c-0.07,2.85,1.4,4.01,5.26,4.71c2.09,0.37,2.94,0.8,2.92,1.81c-0.03,1.01-0.78,1.57-2.33,1.53c-1.77-0.05-2.38-0.82-2.52-2.14
				l-3.76-0.11c0.05,3.16,2.29,4.96,6.23,5.07c3.86,0.11,6.19-1.48,6.28-4.64C180.94,309.4,178.96,308.43,175.31,307.79"/>
			<path id="XMLID_40_" class="st1" d="M190.84,313.44c-1.03,0.07-1.65-0.45-1.73-1.62l-0.47-7.03l3.06-0.2l-0.19-2.87l-3.07,0.2
				l-0.21-3.15l-4.02,0.27l0.21,3.14l-1.87,0.13l0.19,2.87l1.87-0.12l0.5,7.39c0.2,3.03,1.95,4.48,5.02,4.28
				c1.09-0.07,1.88-0.32,2.43-0.55l-0.21-3.12C191.89,313.29,191.45,313.4,190.84,313.44"/>
			<path id="XMLID_39_" class="st1" d="M211.47,297.88c-1.81,0.38-3.51,1.53-4.3,3.5c-1.04-1.56-2.63-2.05-4.51-1.65
				c-2.14,0.45-3.42,1.94-3.85,3.43l-0.46-2.19l-3.96,0.83l2.99,14.31l3.97-0.83l-1.77-8.45c-0.41-1.94,0.62-3.19,2.15-3.51
				c1.39-0.29,2.41,0.36,2.8,2.19l1.83,8.73l3.94-0.82l-1.77-8.46c-0.41-1.94,0.62-3.19,2.15-3.5c1.43-0.3,2.42,0.35,2.8,2.19
				l1.82,8.72l3.95-0.82l-1.92-9.17C216.52,298.56,214.12,297.32,211.47,297.88"/>
			<path id="XMLID_36_" class="st1" d="M226.49,295.81c1.8-0.69,3.23-0.1,4.15,1.91l-6.11,2.34
				C224.08,298.02,224.79,296.45,226.49,295.81 M232.25,301.68c0.2,1.24-0.37,2.32-2.12,2.99c-2.06,0.79-3.79-0.04-4.76-2.28
				l9.84-3.77l-0.4-1.04c-1.87-4.88-5.8-5.75-9.32-4.39c-3.96,1.53-5.94,5.49-4.3,9.79l0.08,0.21c1.68,4.35,5.67,5.79,9.79,4.21
				c3.73-1.43,5.45-3.97,4.76-7.09L232.25,301.68z"/>
			<path id="XMLID_35_" class="st1" d="M242.26,285.36c-2.14,1.15-2.97,2.97-2.93,4.59l-1.1-2.04l-3.57,1.92l6.92,12.87l3.57-1.92
				l-4-7.43c-1.02-1.9-0.36-3.46,1.17-4.27c1.57-0.85,2.71-0.38,3.65,1.36l4.13,7.68l3.57-1.92l-4.41-8.2
				C247.42,284.55,244.79,283.99,242.26,285.36"/>
			<path id="XMLID_34_" class="st1" d="M261.43,287.42c-0.85,0.58-1.65,0.45-2.32-0.52l-3.97-5.81l2.54-1.74l-1.62-2.37l-2.54,1.73
				l-1.78-2.61l-3.32,2.27l1.78,2.6l-1.55,1.05l1.62,2.38l1.55-1.06l4.18,6.11c1.72,2.52,3.96,2.88,6.5,1.15
				c0.89-0.62,1.45-1.23,1.81-1.71l-1.76-2.59C262.26,286.75,261.94,287.08,261.43,287.42"/>
		</g>
		<polygon id="XMLID_32_" class="st1" points="276.51,268.51 274.19,266.01 269.38,270.48 265.79,266.61 271.86,260.97 
			269.45,258.37 260.06,267.1 273.66,281.73 276.97,278.64 271.7,272.98 		"/>
		<g id="XMLID_26_">
			<path id="XMLID_31_" class="st1" d="M280.69,253.45l6.56,5.53c1.65,1.39,1.6,3.1,0.5,4.4c-1.12,1.33-2.37,1.34-3.88,0.06
				l-6.78-5.7l-2.59,3.07l7.21,6.07c2.93,2.47,5.58,1.92,7.42-0.26c1.55-1.84,1.65-3.69,1-5.23l1.75,1.48l2.59-3.08l-11.19-9.41
				L280.69,253.45z"/>
			<path id="XMLID_30_" class="st1" d="M289.86,239.89c-1.31,2.05-1.15,4.04-0.32,5.43l-1.96-1.25l-2.18,3.41l12.32,7.86l2.18-3.41
				l-7.11-4.54c-1.82-1.15-2-2.84-1.07-4.3c0.96-1.51,2.19-1.65,3.85-0.59l7.35,4.69l2.18-3.41l-7.84-5.01
				C293.97,236.68,291.41,237.46,289.86,239.89"/>
			<path id="XMLID_27_" class="st1" d="M305.28,226.54l0.21,0.1c2.68,1.25,3.35,3.19,2.46,5.11c-0.84,1.82-2.72,2.49-5.36,1.27
				l-0.2-0.1c-2.63-1.22-3.5-3.01-2.55-5.06C300.77,225.87,302.65,225.33,305.28,226.54 M292.74,220.86l7.98,3.7
				c-1.68,0.11-3.23,1-4.22,3.12c-1.54,3.32-0.14,7.01,4.22,9.04l0.2,0.1c4.4,2.04,7.89,0.57,9.38-2.64c0.9-1.95,0.52-4.1-0.52-5.41
				l2.2,1.02l1.69-3.65l-19.26-8.92L292.74,220.86z"/>
		</g>
	</g>
</g>
</svg>
